<?xml version="1.0" encoding="UTF-8" standalone="no"?>
<!-- Generator: Adobe Illustrator 16.0.0, SVG Export Plug-In . SVG Version: 6.00 Build 0)  -->

<svg
   xmlns:dc="http://purl.org/dc/elements/1.1/"
   xmlns:cc="http://creativecommons.org/ns#"
   xmlns:rdf="http://www.w3.org/1999/02/22-rdf-syntax-ns#"
   xmlns:svg="http://www.w3.org/2000/svg"
   xmlns="http://www.w3.org/2000/svg"
   xmlns:sodipodi="http://sodipodi.sourceforge.net/DTD/sodipodi-0.dtd"
   xmlns:inkscape="http://www.inkscape.org/namespaces/inkscape"
   version="1.1"
   id="Capa_1"
   x="0px"
   y="0px"
   width="7.467"
   height="16"
   viewBox="0 0 7.4669999 15.999999"
   xml:space="preserve"
   sodipodi:docname="facebook.svg"
   inkscape:version="0.92.3 (d244b95, 2018-08-02)"><metadata
   id="metadata40"><rdf:RDF><cc:Work
       rdf:about=""><dc:format>image/svg+xml</dc:format><dc:type
         rdf:resource="http://purl.org/dc/dcmitype/StillImage" /><dc:title></dc:title></cc:Work></rdf:RDF></metadata><defs
   id="defs38" /><sodipodi:namedview
   pagecolor="#ffffff"
   bordercolor="#666666"
   borderopacity="1"
   objecttolerance="10"
   gridtolerance="10"
   guidetolerance="10"
   inkscape:pageopacity="0"
   inkscape:pageshadow="2"
   inkscape:window-width="1312"
   inkscape:window-height="704"
   id="namedview36"
   showgrid="false"
   inkscape:zoom="8.7790676"
   inkscape:cx="-1.421284"
   inkscape:cy="4.9825573"
   inkscape:window-x="54"
   inkscape:window-y="27"
   inkscape:window-maximized="1"
   inkscape:current-layer="Capa_1" />
<g
   id="g3"
   transform="matrix(0.03719961,0,0,0.03719961,-4.2666465,-3.3671875e-5)"
   style="fill:#ffffff">
	<path
   id="Facebook"
   d="m 158.081,83.3 c 0,10.839 0,59.218 0,59.218 h -43.385 v 72.412 h 43.385 v 215.183 h 89.122 V 214.936 h 59.805 c 0,0 5.601,-34.721 8.316,-72.685 -7.784,0 -67.784,0 -67.784,0 0,0 0,-42.127 0,-49.511 0,-7.4 9.717,-17.354 19.321,-17.354 9.586,0 29.818,0 48.557,0 0,-9.859 0,-43.924 0,-75.385 -25.016,0 -53.476,0 -66.021,0 C 155.878,-0.004 158.081,72.48 158.081,83.3 Z"
   inkscape:connector-curvature="0"
   style="fill:#ffffff" />
</g>
<g
   id="g5"
   transform="translate(0,-414.11401)"
   style="fill:#ffffff">
</g>
<g
   id="g7"
   transform="translate(0,-414.11401)"
   style="fill:#ffffff">
</g>
<g
   id="g9"
   transform="translate(0,-414.11401)"
   style="fill:#ffffff">
</g>
<g
   id="g11"
   transform="translate(0,-414.11401)"
   style="fill:#ffffff">
</g>
<g
   id="g13"
   transform="translate(0,-414.11401)"
   style="fill:#ffffff">
</g>
<g
   id="g15"
   transform="translate(0,-414.11401)"
   style="fill:#ffffff">
</g>
<g
   id="g17"
   transform="translate(0,-414.11401)"
   style="fill:#ffffff">
</g>
<g
   id="g19"
   transform="translate(0,-414.11401)"
   style="fill:#ffffff">
</g>
<g
   id="g21"
   transform="translate(0,-414.11401)"
   style="fill:#ffffff">
</g>
<g
   id="g23"
   transform="translate(0,-414.11401)"
   style="fill:#ffffff">
</g>
<g
   id="g25"
   transform="translate(0,-414.11401)"
   style="fill:#ffffff">
</g>
<g
   id="g27"
   transform="translate(0,-414.11401)"
   style="fill:#ffffff">
</g>
<g
   id="g29"
   transform="translate(0,-414.11401)"
   style="fill:#ffffff">
</g>
<g
   id="g31"
   transform="translate(0,-414.11401)"
   style="fill:#ffffff">
</g>
<g
   id="g33"
   transform="translate(0,-414.11401)"
   style="fill:#ffffff">
</g>
</svg>