<?xml version="1.0" encoding="UTF-8" standalone="no"?>
<!-- Generator: Adobe Illustrator 19.1.0, SVG Export Plug-In . SVG Version: 6.00 Build 0)  -->

<svg
   xmlns:dc="http://purl.org/dc/elements/1.1/"
   xmlns:cc="http://creativecommons.org/ns#"
   xmlns:rdf="http://www.w3.org/1999/02/22-rdf-syntax-ns#"
   xmlns:svg="http://www.w3.org/2000/svg"
   xmlns="http://www.w3.org/2000/svg"
   xmlns:sodipodi="http://sodipodi.sourceforge.net/DTD/sodipodi-0.dtd"
   xmlns:inkscape="http://www.inkscape.org/namespaces/inkscape"
   version="1.1"
   id="Capa_1"
   x="0px"
   y="0px"
   viewBox="0 0 15.164 16"
   xml:space="preserve"
   sodipodi:docname="sign-in.svg"
   width="15.164"
   height="16"
   inkscape:version="0.92.3 (d244b95, 2018-08-02)"><metadata
   id="metadata45"><rdf:RDF><cc:Work
       rdf:about=""><dc:format>image/svg+xml</dc:format><dc:type
         rdf:resource="http://purl.org/dc/dcmitype/StillImage" /><dc:title></dc:title></cc:Work></rdf:RDF></metadata><defs
   id="defs43" /><sodipodi:namedview
   pagecolor="#ffffff"
   bordercolor="#666666"
   borderopacity="1"
   objecttolerance="10"
   gridtolerance="10"
   guidetolerance="10"
   inkscape:pageopacity="0"
   inkscape:pageshadow="2"
   inkscape:window-width="1312"
   inkscape:window-height="704"
   id="namedview41"
   showgrid="false"
   inkscape:zoom="3.5223881"
   inkscape:cx="33.5"
   inkscape:cy="45.334393"
   inkscape:window-x="54"
   inkscape:window-y="27"
   inkscape:window-maximized="1"
   inkscape:current-layer="Capa_1" />
<g
   id="g8"
   transform="matrix(0.23880597,0,0,0.23880597,-0.41791045,0)"
   style="fill:#ffffff">
	<g
   id="g6"
   style="fill:#ffffff">
		<path
   d="m 17.121,33 c 0,-1.104 0.896,-2 2,-2 h 38.412 l -8.511,-8.32 c -0.781,-0.781 -0.781,-1.952 0,-2.733 0.78,-0.781 2.047,-0.734 2.828,0.047 l 12.814,12.838 c 0.375,0.375 0.586,0.896 0.586,1.426 0,0.53 -0.211,1.045 -0.586,1.42 L 51.849,48.493 c -0.391,0.391 -0.902,0.587 -1.414,0.587 -0.512,0 -1.024,-0.194 -1.415,-0.585 -0.781,-0.781 -0.781,-2.237 0,-3.018 L 59.309,35 H 19.121 c -1.104,0 -2,-0.896 -2,-2 z"
   id="path2"
   inkscape:connector-curvature="0"
   style="fill:#ffffff" />
		<path
   d="m 45.75,59.281 v -11.9 c 0,-1.104 -0.896,-2 -2,-2 -1.104,0 -2,0.896 -2,2 v 11.9 C 41.75,61.972 39.714,63 37.209,63 H 11.208 C 8.82,63 5.75,62.098 5.75,59.281 V 9.541 C 5.75,6.841 8.613,4 11.208,4 h 26.001 c 2.592,0 4.541,2.889 4.541,5.541 v 11.84 c 0,1.104 0.896,2 2,2 1.104,0 2,-0.896 2,-2 V 9.541 C 45.75,4.661 42.025,0 37.209,0 H 11.208 C 6.436,0 1.75,4.661 1.75,9.541 v 49.74 C 1.75,63.898 6.101,67 11.208,67 h 26.001 c 5.154,0 8.541,-3.102 8.541,-7.719 z"
   id="path4"
   inkscape:connector-curvature="0"
   style="fill:#ffffff" />
	</g>
</g>
<g
   id="g10"
   transform="translate(-1.75,-51)"
   style="fill:#ffffff">
</g>
<g
   id="g12"
   transform="translate(-1.75,-51)"
   style="fill:#ffffff">
</g>
<g
   id="g14"
   transform="translate(-1.75,-51)"
   style="fill:#ffffff">
</g>
<g
   id="g16"
   transform="translate(-1.75,-51)"
   style="fill:#ffffff">
</g>
<g
   id="g18"
   transform="translate(-1.75,-51)"
   style="fill:#ffffff">
</g>
<g
   id="g20"
   transform="translate(-1.75,-51)"
   style="fill:#ffffff">
</g>
<g
   id="g22"
   transform="translate(-1.75,-51)"
   style="fill:#ffffff">
</g>
<g
   id="g24"
   transform="translate(-1.75,-51)"
   style="fill:#ffffff">
</g>
<g
   id="g26"
   transform="translate(-1.75,-51)"
   style="fill:#ffffff">
</g>
<g
   id="g28"
   transform="translate(-1.75,-51)"
   style="fill:#ffffff">
</g>
<g
   id="g30"
   transform="translate(-1.75,-51)"
   style="fill:#ffffff">
</g>
<g
   id="g32"
   transform="translate(-1.75,-51)"
   style="fill:#ffffff">
</g>
<g
   id="g34"
   transform="translate(-1.75,-51)"
   style="fill:#ffffff">
</g>
<g
   id="g36"
   transform="translate(-1.75,-51)"
   style="fill:#ffffff">
</g>
<g
   id="g38"
   transform="translate(-1.75,-51)"
   style="fill:#ffffff">
</g>
</svg>