<?xml version="1.0" encoding="UTF-8" standalone="no"?>
<!-- Generator: Adobe Illustrator 19.0.0, SVG Export Plug-In . SVG Version: 6.00 Build 0)  -->

<svg
   xmlns:dc="http://purl.org/dc/elements/1.1/"
   xmlns:cc="http://creativecommons.org/ns#"
   xmlns:rdf="http://www.w3.org/1999/02/22-rdf-syntax-ns#"
   xmlns:svg="http://www.w3.org/2000/svg"
   xmlns="http://www.w3.org/2000/svg"
   xmlns:sodipodi="http://sodipodi.sourceforge.net/DTD/sodipodi-0.dtd"
   xmlns:inkscape="http://www.inkscape.org/namespaces/inkscape"
   version="1.1"
   id="Layer_1"
   x="0px"
   y="0px"
   viewBox="0 0 13.449 16"
   xml:space="preserve"
   sodipodi:docname="user.svg"
   width="13.449"
   height="16"
   inkscape:version="0.92.3 (d244b95, 2018-08-02)"><metadata
   id="metadata43"><rdf:RDF><cc:Work
       rdf:about=""><dc:format>image/svg+xml</dc:format><dc:type
         rdf:resource="http://purl.org/dc/dcmitype/StillImage" /><dc:title></dc:title></cc:Work></rdf:RDF></metadata><defs
   id="defs41" /><sodipodi:namedview
   pagecolor="#ffffff"
   bordercolor="#666666"
   borderopacity="1"
   objecttolerance="10"
   gridtolerance="10"
   guidetolerance="10"
   inkscape:pageopacity="0"
   inkscape:pageshadow="2"
   inkscape:window-width="1312"
   inkscape:window-height="704"
   id="namedview39"
   showgrid="false"
   inkscape:zoom="0.91207729"
   inkscape:cx="129.375"
   inkscape:cy="129.375"
   inkscape:window-x="54"
   inkscape:window-y="27"
   inkscape:window-maximized="1"
   inkscape:current-layer="Layer_1" />
<g
   id="g6"
   transform="matrix(0.06183575,0,0,0.06183575,-1.2753623,0)"
   style="fill:#ffffff">
	<circle
   cx="129.375"
   cy="60"
   r="60"
   id="circle2"
   style="fill:#ffffff" />
	<path
   d="m 129.375,150 c -60.061,0 -108.75,48.689 -108.75,108.75 h 217.5 C 238.125,198.689 189.436,150 129.375,150 Z"
   id="path4"
   inkscape:connector-curvature="0"
   style="fill:#ffffff" />
</g>
<g
   id="g8"
   transform="matrix(0.06183575,0,0,0.06183575,-1.2753623,0)"
   style="fill:#ffffff">
</g>
<g
   id="g10"
   transform="matrix(0.06183575,0,0,0.06183575,-1.2753623,0)"
   style="fill:#ffffff">
</g>
<g
   id="g12"
   transform="matrix(0.06183575,0,0,0.06183575,-1.2753623,0)"
   style="fill:#ffffff">
</g>
<g
   id="g14"
   transform="matrix(0.06183575,0,0,0.06183575,-1.2753623,0)"
   style="fill:#ffffff">
</g>
<g
   id="g16"
   transform="matrix(0.06183575,0,0,0.06183575,-1.2753623,0)"
   style="fill:#ffffff">
</g>
<g
   id="g18"
   transform="matrix(0.06183575,0,0,0.06183575,-1.2753623,0)"
   style="fill:#ffffff">
</g>
<g
   id="g20"
   transform="matrix(0.06183575,0,0,0.06183575,-1.2753623,0)"
   style="fill:#ffffff">
</g>
<g
   id="g22"
   transform="matrix(0.06183575,0,0,0.06183575,-1.2753623,0)"
   style="fill:#ffffff">
</g>
<g
   id="g24"
   transform="matrix(0.06183575,0,0,0.06183575,-1.2753623,0)"
   style="fill:#ffffff">
</g>
<g
   id="g26"
   transform="matrix(0.06183575,0,0,0.06183575,-1.2753623,0)"
   style="fill:#ffffff">
</g>
<g
   id="g28"
   transform="matrix(0.06183575,0,0,0.06183575,-1.2753623,0)"
   style="fill:#ffffff">
</g>
<g
   id="g30"
   transform="matrix(0.06183575,0,0,0.06183575,-1.2753623,0)"
   style="fill:#ffffff">
</g>
<g
   id="g32"
   transform="matrix(0.06183575,0,0,0.06183575,-1.2753623,0)"
   style="fill:#ffffff">
</g>
<g
   id="g34"
   transform="matrix(0.06183575,0,0,0.06183575,-1.2753623,0)"
   style="fill:#ffffff">
</g>
<g
   id="g36"
   transform="matrix(0.06183575,0,0,0.06183575,-1.2753623,0)"
   style="fill:#ffffff">
</g>
</svg>